<?xml version="1.0" standalone="no"?>
<!DOCTYPE svg>
<svg version="1.0" xmlns="http://www.w3.org/2000/svg"
 width="154.000000pt" height="155.000000pt" viewBox="0 0 154.000000 155.000000"
 preserveAspectRatio="xMidYMid meet">

<g transform="translate(0.000000,155.000000) scale(0.100000,-0.100000)" stroke="none">
<path fill="#2A3F9C" d="M757 1543 c-4 -3 -7 -17 -7 -29 0 -17 -7 -23 -27 -26 -22 -2 -28 -8
-28 -28 0 -20 6 -26 28 -28 28 -3 29 -4 22 -55 -9 -72 -37 -121 -111 -199 -58
-60 -64 -70 -64 -109 0 -27 9 -58 26 -86 l25 -44 -30 -35 c-17 -19 -33 -44
-36 -57 -3 -12 -4 -161 -3 -332 3 -294 4 -310 22 -313 10 -2 22 2 27 10 5 7 9
153 9 324 l0 310 35 31 c43 38 44 58 5 126 -16 30 -30 61 -30 70 0 8 23 37 50
64 28 26 62 65 76 85 l26 38 21 -28 c11 -15 47 -55 80 -89 65 -69 66 -76 21
-145 -33 -52 -31 -81 11 -122 l35 -35 0 -375 c0 -327 -2 -377 -16 -390 -12
-12 -38 -16 -114 -16 -91 0 -100 2 -114 22 -14 19 -16 66 -16 315 0 280 1 294
20 313 15 15 33 20 74 20 88 0 86 6 86 -268 0 -130 4 -243 9 -250 5 -8 17 -12
27 -10 18 3 19 18 22 246 3 324 -1 332 -151 332 -76 0 -103 -13 -126 -57 -7
-15 -11 -124 -11 -336 0 -300 1 -315 20 -340 30 -38 79 -50 184 -45 170 8 166
-2 166 451 0 195 -3 369 -6 387 -4 17 -22 46 -40 64 l-33 32 26 39 c16 23 28
58 31 86 4 47 4 47 -71 127 -77 83 -107 141 -107 208 0 27 4 32 31 38 25 5 30
10 27 28 -2 17 -11 24 -30 26 -22 3 -28 9 -28 27 0 12 -7 26 -16 29 -19 7 -19
7 -27 -1z"/>
<path fill="#EB272B" d="M1280 1518 c-45 -73 -80 -239 -80 -377 0 -49 -4 -72 -15 -81 -10 -8
-15 -30 -15 -65 0 -46 -4 -56 -34 -87 -20 -20 -37 -50 -41 -69 -3 -19 -4 -169
-3 -334 l3 -300 25 0 25 0 5 322 5 323 24 16 c29 20 51 72 51 118 0 19 4 37 9
40 5 3 12 52 15 108 9 132 24 228 46 292 l18 51 16 -37 c25 -58 37 -124 46
-261 5 -77 13 -134 21 -143 7 -9 12 -33 11 -55 -3 -42 14 -84 47 -113 21 -19
21 -26 21 -401 0 -283 -3 -384 -12 -393 -16 -16 -210 -16 -226 0 -9 9 -12 93
-12 318 0 353 -3 340 88 340 39 0 57 -5 72 -20 20 -20 21 -31 19 -256 -1 -239
2 -263 35 -251 14 6 16 38 16 252 0 321 -2 325 -147 325 -83 0 -109 -12 -132
-57 -7 -15 -11 -122 -11 -328 0 -341 2 -354 65 -381 45 -19 195 -19 240 0 64
27 65 33 65 451 0 394 0 392 -46 448 -19 22 -24 41 -24 82 0 32 -5 57 -13 64
-10 7 -16 48 -20 128 -10 187 -63 354 -114 361 -16 2 -28 -6 -43 -30z"/>
<path fill="#E0E0E0" d="M149 1538 c-1 -2 -3 -84 -4 -183 -4 -203 -13 -247 -92 -475 l-48
-135 -3 -248 c-2 -137 -1 -260 2 -273 5 -19 12 -25 29 -22 22 3 22 3 27 293
l5 290 33 85 c73 186 85 242 91 425 l6 170 30 0 30 0 6 -150 c8 -177 25 -269
72 -391 19 -49 40 -108 46 -132 16 -58 15 -700 0 -719 -14 -16 -190 -18 -220
-3 -18 10 -19 24 -19 320 0 354 -3 340 84 340 93 0 90 8 96 -277 5 -240 6
-248 25 -248 19 0 20 8 23 255 l2 255 -24 30 c-22 28 -29 30 -106 33 -158 8
-160 4 -160 -382 0 -333 3 -351 63 -379 45 -22 193 -23 242 -3 63 27 65 38 65
401 l0 325 -30 88 c-17 48 -37 102 -46 119 -42 90 -56 184 -60 383 -2 107 -3
198 -4 203 0 6 -158 11 -161 5z"/>
</g>
</svg>
